<svg width="36" height="48" viewBox="0 0 36 48" fill="none" xmlns="http://www.w3.org/2000/svg">
<path d="M34.778 33.9048V17.9048C34.778 17.484 34.689 17.1429 34.2682 17.1429H19.4218C18.8451 17.1429 18.4749 17.7587 18.7485 18.2663L33.3454 45.3427C33.7209 46.0392 34.778 45.7725 34.778 44.9811V33.9048Z" stroke="#F0F0F0" stroke-width="2"/>
<path d="M8.36588 33.1429V17.9048C8.36588 17.484 8.4533 17.1429 8.87409 17.1429H24.3566C24.7774 17.1429 25.1283 17.4855 25.1236 17.9062C25.0177 27.3628 22.8021 33.6722 9.13671 33.8985C8.71598 33.9054 8.36588 33.5636 8.36588 33.1429Z" stroke="#F0F0F0" stroke-width="2"/>
<path d="M1 32.8273V1.81119C1 1.13643 1.81236 0.794701 2.2947 1.26655L17.9732 16.6042C18.2763 16.9007 18.279 17.3877 17.9791 17.6876L2.30065 33.366C1.82068 33.846 1 33.5061 1 32.8273Z" stroke="#F0F0F0" stroke-width="2"/>
</svg>
